<svg xmlns="http://www.w3.org/2000/svg" width="24" height="24" viewBox="0 0 32 32">
  <!-- Hover cursor (links & buttons): the same cigarette, snapped in two.
       The front half stays put so the click point doesn't move. -->
  <g transform="rotate(45 16 16)" stroke="#0b0b0b" stroke-width="1.2" stroke-linejoin="round">
    <path d="M4.2 13.6 H13.6 L14.3 15 L13.5 16.4 L14.2 18.4 H4.2 A1.2 1.2 0 0 1 3 17.2 V14.8 A1.2 1.2 0 0 1 4.2 13.6 Z" fill="#ffffff"/>
    <rect x="3" y="13.6" width="3.2" height="4.8" rx="1.2" fill="#8a8a8a"/>
    <g transform="rotate(25 14.8 16)">
      <path d="M15.6 13.6 H28.8 A1.2 1.2 0 0 1 30 14.8 V17.2 A1.2 1.2 0 0 1 28.8 18.4 H15.8 L16.5 16.6 L15.7 15.2 Z" fill="#ffffff"/>
      <line x1="22.5" y1="13.6" x2="22.5" y2="18.4"/>
    </g>
  </g>
</svg>
